<mxfile host="65bd71144e">
    <diagram id="LUnM-R_h_gn7mJZ8d1PQ" name="Page-1">
        <mxGraphModel dx="2394" dy="606" grid="1" gridSize="10" guides="1" tooltips="1" connect="1" arrows="1" fold="1" page="1" pageScale="1" pageWidth="850" pageHeight="1100" math="0" shadow="0">
            <root>
                <mxCell id="0"/>
                <mxCell id="1" parent="0"/>
                <mxCell id="2" value="" style="edgeStyle=none;html=1;entryX=0;entryY=0.5;entryDx=0;entryDy=0;exitX=0.75;exitY=0;exitDx=0;exitDy=0;" edge="1" parent="1" source="4" target="28">
                    <mxGeometry relative="1" as="geometry">
                        <mxPoint x="-807" y="1290" as="sourcePoint"/>
                        <mxPoint x="-597" y="1285" as="targetPoint"/>
                        <Array as="points">
                            <mxPoint x="-837" y="1196"/>
                        </Array>
                    </mxGeometry>
                </mxCell>
                <mxCell id="3" style="edgeStyle=none;html=1;" edge="1" parent="1" source="4" target="24">
                    <mxGeometry relative="1" as="geometry">
                        <Array as="points">
                            <mxPoint x="-552" y="1270"/>
                        </Array>
                    </mxGeometry>
                </mxCell>
                <mxCell id="4" value="Project Idle" style="rounded=1;whiteSpace=wrap;html=1;" vertex="1" parent="1">
                    <mxGeometry x="-927" y="1240" width="120" height="60" as="geometry"/>
                </mxCell>
                <mxCell id="5" style="edgeStyle=none;html=1;fontSize=12;startArrow=none;" edge="1" parent="1" source="30" target="4">
                    <mxGeometry relative="1" as="geometry">
                        <mxPoint x="-937" y="1270" as="targetPoint"/>
                        <mxPoint x="-997" y="1270" as="sourcePoint"/>
                    </mxGeometry>
                </mxCell>
                <mxCell id="6" style="edgeStyle=none;html=1;fontSize=11;fontColor=#000000;entryX=0;entryY=0.75;entryDx=0;entryDy=0;exitX=0.174;exitY=0.996;exitDx=0;exitDy=0;exitPerimeter=0;" edge="1" parent="1" source="9" target="24">
                    <mxGeometry relative="1" as="geometry">
                        <Array as="points">
                            <mxPoint x="-907" y="1545"/>
                        </Array>
                        <mxPoint x="-577.8000000000002" y="1302.8199999999997" as="targetPoint"/>
                    </mxGeometry>
                </mxCell>
                <mxCell id="7" style="edgeStyle=none;html=1;exitX=0.75;exitY=0;exitDx=0;exitDy=0;entryX=0.75;entryY=1;entryDx=0;entryDy=0;fontSize=12;" edge="1" parent="1" source="9" target="4">
                    <mxGeometry relative="1" as="geometry"/>
                </mxCell>
                <mxCell id="8" style="edgeStyle=none;html=1;fontSize=12;entryX=1;entryY=0.25;entryDx=0;entryDy=0;exitX=0.125;exitY=0;exitDx=0;exitDy=0;exitPerimeter=0;" edge="1" parent="1" source="33">
                    <mxGeometry relative="1" as="geometry">
                        <mxPoint x="-807" y="1384" as="targetPoint"/>
                        <Array as="points">
                            <mxPoint x="-372" y="1384"/>
                            <mxPoint x="-587" y="1384"/>
                            <mxPoint x="-780" y="1384"/>
                        </Array>
                        <mxPoint x="-372.4000000000001" y="1487.3200000000002" as="sourcePoint"/>
                    </mxGeometry>
                </mxCell>
                <mxCell id="9" value="Project Playing" style="rounded=1;whiteSpace=wrap;html=1;fontSize=12;" vertex="1" parent="1">
                    <mxGeometry x="-927" y="1380" width="120" height="60" as="geometry"/>
                </mxCell>
                <mxCell id="10" style="edgeStyle=none;html=1;fontSize=12;entryX=0.25;entryY=0;entryDx=0;entryDy=0;exitX=0.25;exitY=1;exitDx=0;exitDy=0;" edge="1" parent="1" source="4" target="9">
                    <mxGeometry relative="1" as="geometry">
                        <mxPoint x="-867" y="1420" as="sourcePoint"/>
                        <Array as="points"/>
                    </mxGeometry>
                </mxCell>
                <mxCell id="11" value="&lt;b&gt;Play&lt;/b&gt;" style="text;html=1;align=center;verticalAlign=middle;resizable=0;points=[];autosize=1;strokeColor=none;fillColor=none;" vertex="1" parent="1">
                    <mxGeometry x="-937" y="1330" width="40" height="20" as="geometry"/>
                </mxCell>
                <mxCell id="12" value="&lt;b&gt;Time Today Double Left Click&lt;/b&gt;" style="text;html=1;strokeColor=none;fillColor=none;align=center;verticalAlign=middle;whiteSpace=wrap;rounded=0;" vertex="1" parent="1">
                    <mxGeometry x="-833" y="1172" width="182" height="30" as="geometry"/>
                </mxCell>
                <mxCell id="13" value="&lt;div&gt;&lt;b&gt;&lt;font style=&quot;font-size: 12px&quot;&gt;Save Valid Time Today&lt;/font&gt;&lt;/b&gt;&lt;/div&gt;&lt;span style=&quot;font-size: 11px&quot;&gt;&lt;div&gt;&lt;span&gt;/secondsToday = input&lt;/span&gt;&lt;/div&gt;&lt;/span&gt;" style="text;html=1;strokeColor=none;fillColor=none;align=center;verticalAlign=middle;whiteSpace=wrap;rounded=0;" vertex="1" parent="1">
                    <mxGeometry x="-771" y="1077" width="140" height="30" as="geometry"/>
                </mxCell>
                <mxCell id="14" value="&lt;b&gt;Time Today Right Click&lt;/b&gt;" style="text;html=1;strokeColor=none;fillColor=none;align=center;verticalAlign=middle;whiteSpace=wrap;rounded=0;" vertex="1" parent="1">
                    <mxGeometry x="-902" y="1544" width="170" height="30" as="geometry"/>
                </mxCell>
                <mxCell id="15" value="&lt;div&gt;&lt;b&gt;&lt;font style=&quot;font-size: 12px&quot;&gt;Save Empty Time Today&lt;/font&gt;&lt;/b&gt;&lt;/div&gt;&lt;div&gt;&lt;span style=&quot;font-size: 11px&quot;&gt;&lt;/span&gt;&lt;/div&gt;&lt;span style=&quot;font-size: 11px&quot;&gt;&lt;div&gt;&lt;span&gt;/secondsToday = 0&amp;nbsp;&lt;/span&gt;&lt;/div&gt;&lt;/span&gt;" style="text;html=1;strokeColor=none;fillColor=none;align=center;verticalAlign=middle;whiteSpace=wrap;rounded=0;" vertex="1" parent="1">
                    <mxGeometry x="-811" y="1030" width="220" height="30" as="geometry"/>
                </mxCell>
                <mxCell id="16" value="&lt;font face=&quot;helvetica&quot; style=&quot;font-size: 12px&quot;&gt;Cancel&lt;br&gt;&lt;span style=&quot;font-weight: normal&quot;&gt;[project playing&lt;/span&gt;&lt;br&gt;&lt;span style=&quot;font-weight: normal&quot;&gt;/quotaToday = 0&lt;/span&gt;&lt;br&gt;&lt;/font&gt;" style="text;html=1;strokeColor=none;fillColor=none;align=center;verticalAlign=middle;whiteSpace=wrap;rounded=0;fontStyle=1" vertex="1" parent="1">
                    <mxGeometry x="-757" y="1390" width="106" height="20" as="geometry"/>
                </mxCell>
                <mxCell id="17" value="&lt;div&gt;&lt;b&gt;&lt;font style=&quot;font-size: 12px&quot;&gt;Save Valid Quota Today&lt;/font&gt;&lt;/b&gt;&lt;/div&gt;&lt;div&gt;&lt;font style=&quot;font-size: 12px&quot;&gt;[project playing]&lt;/font&gt;&lt;/div&gt;&lt;span style=&quot;font-size: 11px&quot;&gt;&lt;div&gt;&lt;span&gt;/quotaToday = input&lt;/span&gt;&lt;/div&gt;&lt;/span&gt;" style="text;html=1;strokeColor=none;fillColor=none;align=center;verticalAlign=middle;whiteSpace=wrap;rounded=0;" vertex="1" parent="1">
                    <mxGeometry x="-789.75" y="1490" width="159.5" height="33" as="geometry"/>
                </mxCell>
                <mxCell id="18" value="&lt;div&gt;&lt;b&gt;&lt;font style=&quot;font-size: 12px&quot;&gt;Save Empty Quota Today&lt;/font&gt;&lt;/b&gt;&lt;/div&gt;&lt;div&gt;[project playing]&lt;/div&gt;&lt;span style=&quot;font-size: 11px&quot;&gt;&lt;div&gt;&lt;span&gt;/quotaToday = 0&lt;/span&gt;&lt;/div&gt;&lt;/span&gt;" style="text;html=1;strokeColor=none;fillColor=none;align=center;verticalAlign=middle;whiteSpace=wrap;rounded=0;" vertex="1" parent="1">
                    <mxGeometry x="-780.25" y="1432" width="150" height="30" as="geometry"/>
                </mxCell>
                <mxCell id="19" value="&lt;div&gt;&lt;b&gt;&lt;font style=&quot;font-size: 12px&quot;&gt;Save Invalid Time Today&lt;/font&gt;&lt;/b&gt;&lt;/div&gt;&lt;span style=&quot;font-size: 11px&quot;&gt;&lt;br&gt;&lt;/span&gt;" style="text;html=1;strokeColor=none;fillColor=none;align=center;verticalAlign=middle;whiteSpace=wrap;rounded=0;" vertex="1" parent="1">
                    <mxGeometry x="-786" y="1120" width="180" height="30" as="geometry"/>
                </mxCell>
                <mxCell id="20" style="edgeStyle=none;html=1;exitX=0;exitY=0.5;exitDx=0;exitDy=0;fontSize=12;entryX=0.337;entryY=1.029;entryDx=0;entryDy=0;entryPerimeter=0;" edge="1" parent="1" source="24" target="9">
                    <mxGeometry relative="1" as="geometry">
                        <mxPoint x="-807" y="1430" as="targetPoint"/>
                        <Array as="points">
                            <mxPoint x="-887" y="1530"/>
                        </Array>
                    </mxGeometry>
                </mxCell>
                <mxCell id="21" style="edgeStyle=none;html=1;exitX=1;exitY=0.5;exitDx=0;exitDy=0;entryX=0;entryY=0.5;entryDx=0;entryDy=0;fontSize=12;" edge="1" parent="1" target="33">
                    <mxGeometry relative="1" as="geometry">
                        <mxPoint x="-573" y="1530" as="sourcePoint"/>
                    </mxGeometry>
                </mxCell>
                <mxCell id="22" style="edgeStyle=none;html=1;exitX=0.25;exitY=0;exitDx=0;exitDy=0;fontSize=12;entryX=0.993;entryY=0.66;entryDx=0;entryDy=0;entryPerimeter=0;" edge="1" parent="1" source="24" target="9">
                    <mxGeometry relative="1" as="geometry">
                        <mxPoint x="-797" y="1425" as="targetPoint"/>
                        <Array as="points">
                            <mxPoint x="-582" y="1420"/>
                        </Array>
                    </mxGeometry>
                </mxCell>
                <mxCell id="23" style="edgeStyle=none;html=1;exitX=0.122;exitY=-0.012;exitDx=0;exitDy=0;entryX=0.5;entryY=1;entryDx=0;entryDy=0;fontSize=12;exitPerimeter=0;" edge="1" parent="1" source="24" target="9">
                    <mxGeometry relative="1" as="geometry">
                        <Array as="points">
                            <mxPoint x="-597" y="1470"/>
                            <mxPoint x="-867" y="1470"/>
                        </Array>
                    </mxGeometry>
                </mxCell>
                <mxCell id="24" value="Quota Today Window" style="rounded=1;whiteSpace=wrap;html=1;" vertex="1" parent="1">
                    <mxGeometry x="-612" y="1500" width="120" height="60" as="geometry"/>
                </mxCell>
                <mxCell id="25" style="edgeStyle=none;html=1;exitX=0.25;exitY=0;exitDx=0;exitDy=0;entryX=0.5;entryY=0;entryDx=0;entryDy=0;fontSize=12;" edge="1" parent="1" source="28" target="4">
                    <mxGeometry relative="1" as="geometry">
                        <Array as="points">
                            <mxPoint x="-601" y="1140"/>
                            <mxPoint x="-867" y="1140"/>
                        </Array>
                    </mxGeometry>
                </mxCell>
                <mxCell id="26" style="edgeStyle=none;html=1;exitX=0.415;exitY=0.004;exitDx=0;exitDy=0;entryX=0.334;entryY=-0.003;entryDx=0;entryDy=0;fontSize=12;exitPerimeter=0;entryPerimeter=0;" edge="1" parent="1" source="28" target="4">
                    <mxGeometry relative="1" as="geometry">
                        <Array as="points">
                            <mxPoint x="-581" y="1110"/>
                            <mxPoint x="-887" y="1110"/>
                        </Array>
                    </mxGeometry>
                </mxCell>
                <mxCell id="27" style="edgeStyle=none;html=1;exitX=0.593;exitY=0.015;exitDx=0;exitDy=0;entryX=0.16;entryY=-0.014;entryDx=0;entryDy=0;entryPerimeter=0;fontSize=12;exitPerimeter=0;" edge="1" parent="1" source="28" target="4">
                    <mxGeometry relative="1" as="geometry">
                        <Array as="points">
                            <mxPoint x="-560" y="1060"/>
                            <mxPoint x="-908" y="1060"/>
                        </Array>
                    </mxGeometry>
                </mxCell>
                <mxCell id="28" value="Time Today Window" style="rounded=1;whiteSpace=wrap;html=1;" vertex="1" parent="1">
                    <mxGeometry x="-631" y="1166" width="120" height="60" as="geometry"/>
                </mxCell>
                <mxCell id="29" value="&lt;b&gt;Pause&lt;/b&gt;" style="text;html=1;align=center;verticalAlign=middle;resizable=0;points=[];autosize=1;strokeColor=none;fillColor=none;" vertex="1" parent="1">
                    <mxGeometry x="-883" y="1330" width="50" height="20" as="geometry"/>
                </mxCell>
                <mxCell id="30" value="" style="ellipse;fillColor=#000000;strokeColor=none;" vertex="1" parent="1">
                    <mxGeometry x="-1007" y="1260" width="20" height="20" as="geometry"/>
                </mxCell>
                <mxCell id="31" value="" style="edgeStyle=none;html=1;fontSize=12;endArrow=none;" edge="1" parent="1" target="30">
                    <mxGeometry relative="1" as="geometry">
                        <mxPoint x="-927" y="1270" as="targetPoint"/>
                        <mxPoint x="-997" y="1270" as="sourcePoint"/>
                    </mxGeometry>
                </mxCell>
                <mxCell id="32" style="edgeStyle=none;html=1;exitX=0.25;exitY=0;exitDx=0;exitDy=0;entryX=1;entryY=0.75;entryDx=0;entryDy=0;fontSize=12;" edge="1" parent="1" source="33" target="4">
                    <mxGeometry relative="1" as="geometry">
                        <Array as="points">
                            <mxPoint x="-358" y="1285"/>
                        </Array>
                    </mxGeometry>
                </mxCell>
                <mxCell id="33" value="Quota Today Error Window" style="rounded=1;whiteSpace=wrap;html=1;" vertex="1" parent="1">
                    <mxGeometry x="-388" y="1500" width="120" height="60" as="geometry"/>
                </mxCell>
                <mxCell id="34" value="&lt;div&gt;&lt;b&gt;&lt;font style=&quot;font-size: 12px&quot;&gt;Save Invalid&amp;nbsp;&lt;/font&gt;&lt;/b&gt;&lt;/div&gt;&lt;div&gt;&lt;b&gt;&lt;font style=&quot;font-size: 12px&quot;&gt;Quota Today&lt;/font&gt;&lt;/b&gt;&lt;/div&gt;" style="text;html=1;strokeColor=none;fillColor=none;align=center;verticalAlign=middle;whiteSpace=wrap;rounded=0;" vertex="1" parent="1">
                    <mxGeometry x="-484" y="1537" width="90" height="30" as="geometry"/>
                </mxCell>
                <mxCell id="35" value="&lt;b&gt;Press Ok&lt;/b&gt;&lt;br&gt;[project playing]" style="text;html=1;strokeColor=none;fillColor=none;align=right;verticalAlign=middle;whiteSpace=wrap;rounded=0;" vertex="1" parent="1">
                    <mxGeometry x="-463" y="1450" width="86" height="30" as="geometry"/>
                </mxCell>
                <mxCell id="36" value="&lt;b&gt;Press Ok&lt;/b&gt;&lt;br&gt;[project NOT playing]" style="text;html=1;strokeColor=none;fillColor=none;align=left;verticalAlign=middle;whiteSpace=wrap;rounded=0;" vertex="1" parent="1">
                    <mxGeometry x="-351" y="1450" width="120" height="30" as="geometry"/>
                </mxCell>
                <mxCell id="37" value="É Ok ter estados repetidos?" style="shape=note;whiteSpace=wrap;html=1;backgroundOutline=1;darkOpacity=0.05;" vertex="1" parent="1">
                    <mxGeometry x="-1130" y="1137" width="80" height="100" as="geometry"/>
                </mxCell>
                <mxCell id="38" value="&lt;b&gt;Time Today Right Click&lt;/b&gt;" style="text;html=1;strokeColor=none;fillColor=none;align=center;verticalAlign=middle;whiteSpace=wrap;rounded=0;" vertex="1" parent="1">
                    <mxGeometry x="-780.25" y="1230" width="170" height="30" as="geometry"/>
                </mxCell>
                <mxCell id="39" value="Por aqui outras setas?&amp;nbsp;&lt;br&gt;kill me" style="shape=note;whiteSpace=wrap;html=1;backgroundOutline=1;darkOpacity=0.05;" vertex="1" parent="1">
                    <mxGeometry x="-688" y="1300" width="80" height="100" as="geometry"/>
                </mxCell>
            </root>
        </mxGraphModel>
    </diagram>
</mxfile>